<svg xmlns="http://www.w3.org/2000/svg" width="64" height="64" viewBox="0 0 64 64" fill="none">
  <circle cx="32" cy="32" r="32" fill="#F7931A"/>
  <path d="M37.2 28.7c1.9-1 3-2.5 2.7-5-.4-3.5-3.2-4.7-7-5.1V14h-2.9v4.4h-2.3V14h-2.9v4.4h-5v3.1h2.2c.7 0 1 .3 1 .9v18.1c0 .6-.3.9-1 .9h-2.2v3.1h5V49h2.9v-4.5h2.3V49h2.9v-4.5c4.9-.3 8.3-1.9 8.8-6.3.4-3.6-1.4-5.4-4.5-6.2Zm-8.8-6h3.2c2.7 0 4.2.8 4.2 2.8 0 2.1-1.5 3-4.2 3h-3.2v-5.8Zm3.8 16.4h-3.8v-6.3h3.8c3 0 4.8.8 4.8 3.1 0 2.4-1.8 3.2-4.8 3.2Z" fill="white"/>
</svg>
