<svg xmlns="http://www.w3.org/2000/svg" width="64" height="64" viewBox="0 0 64 64" fill="none">
  <defs>
    <linearGradient id="g" x1="10" y1="12" x2="50" y2="54" gradientUnits="userSpaceOnUse">
      <stop stop-color="#355CFF"/>
      <stop offset="1" stop-color="#F7931A"/>
    </linearGradient>
  </defs>
  <circle cx="32" cy="32" r="32" fill="#0F1524"/>
  <circle cx="32" cy="32" r="22" fill="url(#g)"/>
  <path d="M29 20h4v4.2h3.5c4.2 0 6.8 1.7 6.8 4.8 0 2.3-1.2 3.9-3.4 4.7 2.7.6 4.1 2.3 4.1 5.2 0 4-3.2 6.1-8.4 6.1H33V49h-4v-3.9h-3V41h2.2c.5 0 .8-.3.8-.8V23.8c0-.5-.3-.8-.8-.8H26v-3.1h3V20Zm4 8v4.7h2.4c2.2 0 3.5-.6 3.5-2.4 0-1.7-1.3-2.3-3.5-2.3H33Zm0 8.3v5h2.9c2.4 0 3.9-.6 3.9-2.5 0-1.8-1.5-2.5-3.9-2.5H33Z" fill="white"/>
</svg>
