<svg xmlns="http://www.w3.org/2000/svg" width="64" height="64" viewBox="0 0 64 64" fill="none">
  <circle cx="32" cy="32" r="32" fill="#2775CA"/>
  <path d="M37.4 22.7c-1.6-1-3.6-1.5-5.8-1.5-5.1 0-8.5 2.6-8.5 6.6 0 3.1 2.3 5 7 6.1 3.4.8 4.1 1.4 4.1 2.8 0 1.4-1.3 2.3-3.7 2.3-2.3 0-4.6-.7-6.6-2.1l-1.5 4.6c1.9 1.3 4.3 2.1 6.8 2.4V49h4.1v-5c5.3-.8 8.2-3.7 8.2-7.3 0-3.3-1.8-5.3-6.5-6.5-3.7-.9-4.6-1.4-4.6-2.8 0-1.2 1.1-2.1 3.3-2.1 2.1 0 4 .6 5.6 1.6l1.9-4.2Z" fill="white"/>
  <path d="M18.4 18.9a18 18 0 0 0 0 26.2M45.6 18.9a18 18 0 0 1 0 26.2" stroke="white" stroke-width="2.5" stroke-linecap="round"/>
</svg>
